<svg width="40" height="40" viewBox="0 0 40 40" fill="none" xmlns="http://www.w3.org/2000/svg">
<path fill-rule="evenodd" clip-rule="evenodd" d="M20.0021 39.4485C17.253 39.4485 13.4754 36.1354 10.145 30.8038C6.90398 25.6149 4.80957 19.682 4.80957 15.6895C4.88496 7.35211 11.665 0.633057 20.0027 0.633057C28.3404 0.633057 35.1205 7.35211 35.1959 15.6895C35.1959 19.682 33.1015 25.6149 29.8543 30.8038C26.5301 36.1354 22.7524 39.4485 20.0021 39.4485Z" fill="url(#paint0_linear_267_3866)"/>
<path fill-rule="evenodd" clip-rule="evenodd" d="M20.0021 23.9715C24.4485 23.9715 28.053 20.367 28.053 15.9206C28.053 11.4742 24.4485 7.86963 20.0021 7.86963C15.5557 7.86963 11.9512 11.4742 11.9512 15.9206C11.9512 20.367 15.5557 23.9715 20.0021 23.9715Z" fill="url(#paint1_linear_267_3866)"/>
<path fill-rule="evenodd" clip-rule="evenodd" d="M19.6954 9.38502C16.7182 9.09232 14.0014 11.0973 13.4035 14.0285C13.3091 14.5018 14.0358 14.6968 14.1314 14.2198C14.6407 11.6181 17.0607 9.84213 19.6954 10.1366C20.1761 10.1863 20.1724 9.44092 19.6954 9.38502Z" fill="#FBFBFB"/>
<defs>
<linearGradient id="paint0_linear_267_3866" x1="4.80957" y1="39.3804" x2="35.1959" y2="39.3804" gradientUnits="userSpaceOnUse">
<stop stop-color="white"/>
<stop offset="1" stop-color="#F7F7F7"/>
</linearGradient>
<linearGradient id="paint1_linear_267_3866" x1="11.9524" y1="23.9709" x2="28.053" y2="23.9709" gradientUnits="userSpaceOnUse">
<stop stop-color="#FFCF5C"/>
<stop offset="1" stop-color="#F2C05A"/>
</linearGradient>
</defs>
</svg>
